<?xml version='1.0' encoding='utf-8'?>
<svg xmlns="http://www.w3.org/2000/svg" viewBox="0 0 1100 1120" width="1100" height="1120" role="img"><title>Qwen3-0.6B post-first decode observations (not the 8B target)</title><rect x="0" y="0" width="1100" height="1120" fill="#ffffff" /><text x="24" y="28" font-family="sans-serif" font-size="18" fill="#222222">Qwen3-0.6B post-first decode observations (not the 8B target)</text><text x="24" y="51" font-family="sans-serif" font-size="12" fill="#222222">Host-observed tokens/s; excludes warmups. No GPU timing or qualification claim.</text><text x="24" y="87" font-family="sans-serif" font-size="12" fill="#222222">request 10</text><rect x="275" y="70" width="640.5261289036571" height="23" fill="#257b75" /><text x="920.5261289036571" y="87" font-family="sans-serif" font-size="12" fill="#222222">5.187</text><text x="24" y="121" font-family="sans-serif" font-size="12" fill="#222222">request 11</text><rect x="275" y="104" width="634.8281779718624" height="23" fill="#257b75" /><text x="914.8281779718624" y="121" font-family="sans-serif" font-size="12" fill="#222222">5.141</text><text x="24" y="155" font-family="sans-serif" font-size="12" fill="#222222">request 12</text><rect x="275" y="138" width="635.8248199804676" height="23" fill="#257b75" /><text x="915.8248199804676" y="155" font-family="sans-serif" font-size="12" fill="#222222">5.149</text><text x="24" y="189" font-family="sans-serif" font-size="12" fill="#222222">request 13</text><rect x="275" y="172" width="634.0896584199027" height="23" fill="#257b75" /><text x="914.0896584199027" y="189" font-family="sans-serif" font-size="12" fill="#222222">5.135</text><text x="24" y="223" font-family="sans-serif" font-size="12" fill="#222222">request 14</text><rect x="275" y="206" width="633.8625020745271" height="23" fill="#257b75" /><text x="913.8625020745271" y="223" font-family="sans-serif" font-size="12" fill="#222222">5.133</text><text x="24" y="257" font-family="sans-serif" font-size="12" fill="#222222">request 15</text><rect x="275" y="240" width="576.0549461321419" height="23" fill="#257b75" /><text x="856.0549461321419" y="257" font-family="sans-serif" font-size="12" fill="#222222">4.665</text><text x="24" y="291" font-family="sans-serif" font-size="12" fill="#222222">request 16</text><rect x="275" y="274" width="635.8062405976042" height="23" fill="#257b75" /><text x="915.8062405976042" y="291" font-family="sans-serif" font-size="12" fill="#222222">5.149</text><text x="24" y="325" font-family="sans-serif" font-size="12" fill="#222222">request 17</text><rect x="275" y="308" width="633.6980121059659" height="23" fill="#257b75" /><text x="913.6980121059659" y="325" font-family="sans-serif" font-size="12" fill="#222222">5.132</text><text x="24" y="359" font-family="sans-serif" font-size="12" fill="#222222">request 18</text><rect x="275" y="342" width="634.2474804007469" height="23" fill="#257b75" /><text x="914.2474804007469" y="359" font-family="sans-serif" font-size="12" fill="#222222">5.136</text><text x="24" y="393" font-family="sans-serif" font-size="12" fill="#222222">request 19</text><rect x="275" y="376" width="635.3163142426663" height="23" fill="#257b75" /><text x="915.3163142426663" y="393" font-family="sans-serif" font-size="12" fill="#222222">5.145</text><text x="24" y="427" font-family="sans-serif" font-size="12" fill="#222222">request 20</text><rect x="275" y="410" width="586.1237944185323" height="23" fill="#257b75" /><text x="866.1237944185323" y="427" font-family="sans-serif" font-size="12" fill="#222222">4.746</text><text x="24" y="461" font-family="sans-serif" font-size="12" fill="#222222">request 21</text><rect x="275" y="444" width="636.1170877494636" height="23" fill="#257b75" /><text x="916.1170877494636" y="461" font-family="sans-serif" font-size="12" fill="#222222">5.151</text><text x="24" y="495" font-family="sans-serif" font-size="12" fill="#222222">request 22</text><rect x="275" y="478" width="568.3334281153418" height="23" fill="#257b75" /><text x="848.3334281153418" y="495" font-family="sans-serif" font-size="12" fill="#222222">4.602</text><text x="24" y="529" font-family="sans-serif" font-size="12" fill="#222222">request 23</text><rect x="275" y="512" width="634.4284471791385" height="23" fill="#257b75" /><text x="914.4284471791385" y="529" font-family="sans-serif" font-size="12" fill="#222222">5.138</text><text x="24" y="563" font-family="sans-serif" font-size="12" fill="#222222">request 24</text><rect x="275" y="546" width="634.4353789965083" height="23" fill="#257b75" /><text x="914.4353789965083" y="563" font-family="sans-serif" font-size="12" fill="#222222">5.138</text><text x="24" y="597" font-family="sans-serif" font-size="12" fill="#222222">request 25</text><rect x="275" y="580" width="631.1257573350583" height="23" fill="#257b75" /><text x="911.1257573350583" y="597" font-family="sans-serif" font-size="12" fill="#222222">5.111</text><text x="24" y="631" font-family="sans-serif" font-size="12" fill="#222222">request 26</text><rect x="275" y="614" width="633.1406413805457" height="23" fill="#257b75" /><text x="913.1406413805457" y="631" font-family="sans-serif" font-size="12" fill="#222222">5.127</text><text x="24" y="665" font-family="sans-serif" font-size="12" fill="#222222">request 27</text><rect x="275" y="648" width="634.7173628691636" height="23" fill="#257b75" /><text x="914.7173628691636" y="665" font-family="sans-serif" font-size="12" fill="#222222">5.140</text><text x="24" y="699" font-family="sans-serif" font-size="12" fill="#222222">request 28</text><rect x="275" y="682" width="633.479012301134" height="23" fill="#257b75" /><text x="913.479012301134" y="699" font-family="sans-serif" font-size="12" fill="#222222">5.130</text><text x="24" y="733" font-family="sans-serif" font-size="12" fill="#222222">request 29</text><rect x="275" y="716" width="633.6905327354795" height="23" fill="#257b75" /><text x="913.6905327354795" y="733" font-family="sans-serif" font-size="12" fill="#222222">5.132</text><text x="24" y="767" font-family="sans-serif" font-size="12" fill="#222222">request 30</text><rect x="275" y="750" width="642.8571428571429" height="23" fill="#257b75" /><text x="922.8571428571429" y="767" font-family="sans-serif" font-size="12" fill="#222222">5.206</text><text x="24" y="801" font-family="sans-serif" font-size="12" fill="#222222">request 31</text><rect x="275" y="784" width="594.0621167879303" height="23" fill="#257b75" /><text x="874.0621167879303" y="801" font-family="sans-serif" font-size="12" fill="#222222">4.811</text><text x="24" y="835" font-family="sans-serif" font-size="12" fill="#222222">request 32</text><rect x="275" y="818" width="635.2591967762394" height="23" fill="#257b75" /><text x="915.2591967762394" y="835" font-family="sans-serif" font-size="12" fill="#222222">5.144</text><text x="24" y="869" font-family="sans-serif" font-size="12" fill="#222222">request 33</text><rect x="275" y="852" width="628.6650189283932" height="23" fill="#257b75" /><text x="908.6650189283932" y="869" font-family="sans-serif" font-size="12" fill="#222222">5.091</text><text x="24" y="903" font-family="sans-serif" font-size="12" fill="#222222">request 34</text><rect x="275" y="886" width="636.7402660718203" height="23" fill="#257b75" /><text x="916.7402660718203" y="903" font-family="sans-serif" font-size="12" fill="#222222">5.156</text><text x="24" y="937" font-family="sans-serif" font-size="12" fill="#222222">request 35</text><rect x="275" y="920" width="633.774338877047" height="23" fill="#257b75" /><text x="913.774338877047" y="937" font-family="sans-serif" font-size="12" fill="#222222">5.132</text><text x="24" y="971" font-family="sans-serif" font-size="12" fill="#222222">request 36</text><rect x="275" y="954" width="583.6896613405783" height="23" fill="#257b75" /><text x="863.6896613405783" y="971" font-family="sans-serif" font-size="12" fill="#222222">4.727</text><text x="24" y="1005" font-family="sans-serif" font-size="12" fill="#222222">request 37</text><rect x="275" y="988" width="634.7445703513456" height="23" fill="#257b75" /><text x="914.7445703513456" y="1005" font-family="sans-serif" font-size="12" fill="#222222">5.140</text><text x="24" y="1039" font-family="sans-serif" font-size="12" fill="#222222">request 38</text><rect x="275" y="1022" width="634.7672044297711" height="23" fill="#257b75" /><text x="914.7672044297711" y="1039" font-family="sans-serif" font-size="12" fill="#222222">5.140</text><text x="24" y="1073" font-family="sans-serif" font-size="12" fill="#222222">request 39</text><rect x="275" y="1056" width="634.1617654994697" height="23" fill="#257b75" /><text x="914.1617654994697" y="1073" font-family="sans-serif" font-size="12" fill="#222222">5.135</text></svg>