<?xml version='1.0' encoding='utf-8'?>
<svg xmlns="http://www.w3.org/2000/svg" viewBox="0 0 1100 490" width="1100" height="490" role="img"><title>Qwen3-8B: worker preparation observation</title><rect x="0" y="0" width="1100" height="490" fill="#ffffff" /><text x="24" y="28" font-family="sans-serif" font-size="18" fill="#222222">Qwen3-8B: worker preparation observation</text><text x="24" y="52" font-family="sans-serif" font-size="12" fill="#222222">One unwarmed request per variant; unqualified host intervals, not GPU durations.</text><line x1="88" x2="1060" y1="410.0" y2="410.0" stroke="#dddddd" /><text x="18" y="414.0" font-family="sans-serif" font-size="12" fill="#222222">0.0</text><line x1="88" x2="1060" y1="350.0" y2="350.0" stroke="#dddddd" /><text x="18" y="354.0" font-family="sans-serif" font-size="12" fill="#222222">49.7</text><line x1="88" x2="1060" y1="290.0" y2="290.0" stroke="#dddddd" /><text x="18" y="294.0" font-family="sans-serif" font-size="12" fill="#222222">99.4</text><line x1="88" x2="1060" y1="230.0" y2="230.0" stroke="#dddddd" /><text x="18" y="234.0" font-family="sans-serif" font-size="12" fill="#222222">149.1</text><line x1="88" x2="1060" y1="170.0" y2="170.0" stroke="#dddddd" /><text x="18" y="174.0" font-family="sans-serif" font-size="12" fill="#222222">198.8</text><line x1="88" x2="1060" y1="110.0" y2="110.0" stroke="#dddddd" /><text x="18" y="114.0" font-family="sans-serif" font-size="12" fill="#222222">248.5</text><text x="18" y="94" font-family="sans-serif" font-size="12" fill="#222222">ms</text><text x="83.0" y="434" font-family="sans-serif" font-size="12" fill="#222222">2</text><text x="277.4" y="434" font-family="sans-serif" font-size="12" fill="#222222">8</text><text x="536.6" y="434" font-family="sans-serif" font-size="12" fill="#222222">16</text><text x="795.8" y="434" font-family="sans-serif" font-size="12" fill="#222222">24</text><text x="1055.0" y="434" font-family="sans-serif" font-size="12" fill="#222222">32</text><text x="325" y="463" font-family="sans-serif" font-size="12" fill="#222222">Output token ordinal (first token excluded); lower interval is better</text><line x1="24" x2="43" y1="76" y2="76" stroke="#257b75" stroke-width="3" /><text x="50" y="81" font-family="sans-serif" font-size="12" fill="#222222">Per-dispatch checks</text><polyline points="88.000,177.932 120.400,177.446 152.800,177.349 185.200,177.579 217.600,178.273 250.000,177.974 282.400,177.599 314.800,176.792 347.200,177.540 379.600,158.456 412.000,176.636 444.400,176.400 476.800,176.133 509.200,177.641 541.600,176.008 574.000,176.872 606.400,176.522 638.800,176.070 671.200,175.655 703.600,142.143 736.000,175.952 768.400,175.915 800.800,175.114 833.200,157.819 865.600,175.483 898.000,175.184 930.400,174.895 962.800,174.751 995.200,171.812 1027.600,174.983 1060.000,151.727" fill="none" stroke="#257b75" stroke-width="2" /><circle cx="88.000" cy="177.932" r="2.5" fill="#257b75"><title>Per-dispatch checks: output 2, 192.192005 ms</title></circle><circle cx="120.400" cy="177.446" r="2.5" fill="#257b75"><title>Per-dispatch checks: output 3, 192.594156 ms</title></circle><circle cx="152.800" cy="177.349" r="2.5" fill="#257b75"><title>Per-dispatch checks: output 4, 192.674576 ms</title></circle><circle cx="185.200" cy="177.579" r="2.5" fill="#257b75"><title>Per-dispatch checks: output 5, 192.484292 ms</title></circle><circle cx="217.600" cy="178.273" r="2.5" fill="#257b75"><title>Per-dispatch checks: output 6, 191.909432 ms</title></circle><circle cx="250.000" cy="177.974" r="2.5" fill="#257b75"><title>Per-dispatch checks: output 7, 192.157113 ms</title></circle><circle cx="282.400" cy="177.599" r="2.5" fill="#257b75"><title>Per-dispatch checks: output 8, 192.467786 ms</title></circle><circle cx="314.800" cy="176.792" r="2.5" fill="#257b75"><title>Per-dispatch checks: output 9, 193.135945 ms</title></circle><circle cx="347.200" cy="177.540" r="2.5" fill="#257b75"><title>Per-dispatch checks: output 10, 192.516810 ms</title></circle><circle cx="379.600" cy="158.456" r="2.5" fill="#257b75"><title>Per-dispatch checks: output 11, 208.321287 ms</title></circle><circle cx="412.000" cy="176.636" r="2.5" fill="#257b75"><title>Per-dispatch checks: output 12, 193.265217 ms</title></circle><circle cx="444.400" cy="176.400" r="2.5" fill="#257b75"><title>Per-dispatch checks: output 13, 193.460701 ms</title></circle><circle cx="476.800" cy="176.133" r="2.5" fill="#257b75"><title>Per-dispatch checks: output 14, 193.681850 ms</title></circle><circle cx="509.200" cy="177.641" r="2.5" fill="#257b75"><title>Per-dispatch checks: output 15, 192.433214 ms</title></circle><circle cx="541.600" cy="176.008" r="2.5" fill="#257b75"><title>Per-dispatch checks: output 16, 193.785766 ms</title></circle><circle cx="574.000" cy="176.872" r="2.5" fill="#257b75"><title>Per-dispatch checks: output 17, 193.069966 ms</title></circle><circle cx="606.400" cy="176.522" r="2.5" fill="#257b75"><title>Per-dispatch checks: output 18, 193.359858 ms</title></circle><circle cx="638.800" cy="176.070" r="2.5" fill="#257b75"><title>Per-dispatch checks: output 19, 193.734198 ms</title></circle><circle cx="671.200" cy="175.655" r="2.5" fill="#257b75"><title>Per-dispatch checks: output 20, 194.077913 ms</title></circle><circle cx="703.600" cy="142.143" r="2.5" fill="#257b75"><title>Per-dispatch checks: output 21, 221.831513 ms</title></circle><circle cx="736.000" cy="175.952" r="2.5" fill="#257b75"><title>Per-dispatch checks: output 22, 193.831473 ms</title></circle><circle cx="768.400" cy="175.915" r="2.5" fill="#257b75"><title>Per-dispatch checks: output 23, 193.862208 ms</title></circle><circle cx="800.800" cy="175.114" r="2.5" fill="#257b75"><title>Per-dispatch checks: output 24, 194.526122 ms</title></circle><circle cx="833.200" cy="157.819" r="2.5" fill="#257b75"><title>Per-dispatch checks: output 25, 208.849053 ms</title></circle><circle cx="865.600" cy="175.483" r="2.5" fill="#257b75"><title>Per-dispatch checks: output 26, 194.220425 ms</title></circle><circle cx="898.000" cy="175.184" r="2.5" fill="#257b75"><title>Per-dispatch checks: output 27, 194.467884 ms</title></circle><circle cx="930.400" cy="174.895" r="2.5" fill="#257b75"><title>Per-dispatch checks: output 28, 194.707351 ms</title></circle><circle cx="962.800" cy="174.751" r="2.5" fill="#257b75"><title>Per-dispatch checks: output 29, 194.826369 ms</title></circle><circle cx="995.200" cy="171.812" r="2.5" fill="#257b75"><title>Per-dispatch checks: output 30, 197.260379 ms</title></circle><circle cx="1027.600" cy="174.983" r="2.5" fill="#257b75"><title>Per-dispatch checks: output 31, 194.633961 ms</title></circle><circle cx="1060.000" cy="151.727" r="2.5" fill="#257b75"><title>Per-dispatch checks: output 32, 213.894236 ms</title></circle><line x1="324" x2="343" y1="76" y2="76" stroke="#ac4b60" stroke-width="3" /><text x="350" y="81" font-family="sans-serif" font-size="12" fill="#222222">Transaction checks</text><polyline points="88.000,194.757 120.400,194.349 152.800,194.501 185.200,194.316 217.600,194.311 250.000,194.330 282.400,194.935 314.800,194.445 347.200,194.028 379.600,194.072 412.000,194.860 444.400,194.512 476.800,193.822 509.200,194.625 541.600,194.633 574.000,194.217 606.400,193.657 638.800,193.794 671.200,193.288 703.600,193.082 736.000,193.161 768.400,205.214 800.800,192.974 833.200,192.584 865.600,193.564 898.000,193.166 930.400,192.127 962.800,192.243 995.200,192.035 1027.600,190.914 1060.000,192.167" fill="none" stroke="#ac4b60" stroke-width="2" /><circle cx="88.000" cy="194.757" r="2.5" fill="#ac4b60"><title>Transaction checks: output 2, 178.258032 ms</title></circle><circle cx="120.400" cy="194.349" r="2.5" fill="#ac4b60"><title>Transaction checks: output 3, 178.596117 ms</title></circle><circle cx="152.800" cy="194.501" r="2.5" fill="#ac4b60"><title>Transaction checks: output 4, 178.470019 ms</title></circle><circle cx="185.200" cy="194.316" r="2.5" fill="#ac4b60"><title>Transaction checks: output 5, 178.623468 ms</title></circle><circle cx="217.600" cy="194.311" r="2.5" fill="#ac4b60"><title>Transaction checks: output 6, 178.627504 ms</title></circle><circle cx="250.000" cy="194.330" r="2.5" fill="#ac4b60"><title>Transaction checks: output 7, 178.611840 ms</title></circle><circle cx="282.400" cy="194.935" r="2.5" fill="#ac4b60"><title>Transaction checks: output 8, 178.110521 ms</title></circle><circle cx="314.800" cy="194.445" r="2.5" fill="#ac4b60"><title>Transaction checks: output 9, 178.516057 ms</title></circle><circle cx="347.200" cy="194.028" r="2.5" fill="#ac4b60"><title>Transaction checks: output 10, 178.861994 ms</title></circle><circle cx="379.600" cy="194.072" r="2.5" fill="#ac4b60"><title>Transaction checks: output 11, 178.825219 ms</title></circle><circle cx="412.000" cy="194.860" r="2.5" fill="#ac4b60"><title>Transaction checks: output 12, 178.172774 ms</title></circle><circle cx="444.400" cy="194.512" r="2.5" fill="#ac4b60"><title>Transaction checks: output 13, 178.461285 ms</title></circle><circle cx="476.800" cy="193.822" r="2.5" fill="#ac4b60"><title>Transaction checks: output 14, 179.032538 ms</title></circle><circle cx="509.200" cy="194.625" r="2.5" fill="#ac4b60"><title>Transaction checks: output 15, 178.367666 ms</title></circle><circle cx="541.600" cy="194.633" r="2.5" fill="#ac4b60"><title>Transaction checks: output 16, 178.360784 ms</title></circle><circle cx="574.000" cy="194.217" r="2.5" fill="#ac4b60"><title>Transaction checks: output 17, 178.705269 ms</title></circle><circle cx="606.400" cy="193.657" r="2.5" fill="#ac4b60"><title>Transaction checks: output 18, 179.168772 ms</title></circle><circle cx="638.800" cy="193.794" r="2.5" fill="#ac4b60"><title>Transaction checks: output 19, 179.055552 ms</title></circle><circle cx="671.200" cy="193.288" r="2.5" fill="#ac4b60"><title>Transaction checks: output 20, 179.474239 ms</title></circle><circle cx="703.600" cy="193.082" r="2.5" fill="#ac4b60"><title>Transaction checks: output 21, 179.645253 ms</title></circle><circle cx="736.000" cy="193.161" r="2.5" fill="#ac4b60"><title>Transaction checks: output 22, 179.579876 ms</title></circle><circle cx="768.400" cy="205.214" r="2.5" fill="#ac4b60"><title>Transaction checks: output 23, 169.597510 ms</title></circle><circle cx="800.800" cy="192.974" r="2.5" fill="#ac4b60"><title>Transaction checks: output 24, 179.734687 ms</title></circle><circle cx="833.200" cy="192.584" r="2.5" fill="#ac4b60"><title>Transaction checks: output 25, 180.057269 ms</title></circle><circle cx="865.600" cy="193.564" r="2.5" fill="#ac4b60"><title>Transaction checks: output 26, 179.246307 ms</title></circle><circle cx="898.000" cy="193.166" r="2.5" fill="#ac4b60"><title>Transaction checks: output 27, 179.575800 ms</title></circle><circle cx="930.400" cy="192.127" r="2.5" fill="#ac4b60"><title>Transaction checks: output 28, 180.435873 ms</title></circle><circle cx="962.800" cy="192.243" r="2.5" fill="#ac4b60"><title>Transaction checks: output 29, 180.339922 ms</title></circle><circle cx="995.200" cy="192.035" r="2.5" fill="#ac4b60"><title>Transaction checks: output 30, 180.512608 ms</title></circle><circle cx="1027.600" cy="190.914" r="2.5" fill="#ac4b60"><title>Transaction checks: output 31, 181.440365 ms</title></circle><circle cx="1060.000" cy="192.167" r="2.5" fill="#ac4b60"><title>Transaction checks: output 32, 180.403345 ms</title></circle></svg>