<?xml version='1.0' encoding='utf-8'?>
<svg xmlns="http://www.w3.org/2000/svg" viewBox="0 0 1100 490" width="1100" height="490" role="img"><title>Qwen3-8B legacy runtime: observed decode intervals</title><rect x="0" y="0" width="1100" height="490" fill="#ffffff" /><text x="24" y="28" font-family="sans-serif" font-size="18" fill="#222222">Qwen3-8B legacy runtime: observed decode intervals</text><text x="24" y="52" font-family="sans-serif" font-size="12" fill="#222222">One unwarmed request per configuration; host intervals, not GPU durations or qualified benchmarks.</text><line x1="88" x2="1060" y1="410.0" y2="410.0" stroke="#dddddd" /><text x="18" y="414.0" font-family="sans-serif" font-size="12" fill="#222222">0.0</text><line x1="88" x2="1060" y1="350.0" y2="350.0" stroke="#dddddd" /><text x="18" y="354.0" font-family="sans-serif" font-size="12" fill="#222222">719.4</text><line x1="88" x2="1060" y1="290.0" y2="290.0" stroke="#dddddd" /><text x="18" y="294.0" font-family="sans-serif" font-size="12" fill="#222222">1438.9</text><line x1="88" x2="1060" y1="230.0" y2="230.0" stroke="#dddddd" /><text x="18" y="234.0" font-family="sans-serif" font-size="12" fill="#222222">2158.3</text><line x1="88" x2="1060" y1="170.0" y2="170.0" stroke="#dddddd" /><text x="18" y="174.0" font-family="sans-serif" font-size="12" fill="#222222">2877.8</text><line x1="88" x2="1060" y1="110.0" y2="110.0" stroke="#dddddd" /><text x="18" y="114.0" font-family="sans-serif" font-size="12" fill="#222222">3597.2</text><text x="18" y="94" font-family="sans-serif" font-size="12" fill="#222222">ms</text><text x="83.0" y="434" font-family="sans-serif" font-size="12" fill="#222222">2</text><text x="277.4" y="434" font-family="sans-serif" font-size="12" fill="#222222">8</text><text x="536.6" y="434" font-family="sans-serif" font-size="12" fill="#222222">16</text><text x="795.8" y="434" font-family="sans-serif" font-size="12" fill="#222222">24</text><text x="1055.0" y="434" font-family="sans-serif" font-size="12" fill="#222222">32</text><text x="325" y="463" font-family="sans-serif" font-size="12" fill="#222222">Output token ordinal (first token excluded); lower interval is better</text><line x1="24" x2="43" y1="76" y2="76" stroke="#257b75" stroke-width="3" /><text x="50" y="81" font-family="sans-serif" font-size="12" fill="#222222">Baseline</text><polyline points="88.000,143.739 120.400,143.816 152.800,144.142 185.200,143.851 217.600,143.687 250.000,143.793 282.400,143.853 314.800,143.877 347.200,144.197 379.600,144.683 412.000,145.407 444.400,144.810 476.800,143.494 509.200,144.061 541.600,143.553 574.000,143.793 606.400,144.078 638.800,143.411 671.200,143.998 703.600,144.029 736.000,144.483 768.400,144.698 800.800,144.191 833.200,143.059 865.600,143.691 898.000,142.143 930.400,142.832 962.800,143.401 995.200,142.918 1027.600,144.412 1060.000,143.329" fill="none" stroke="#257b75" stroke-width="2" /><circle cx="88.000" cy="143.739" r="2.5" fill="#257b75"><title>Baseline: output 2, 3192.642437 ms</title></circle><circle cx="120.400" cy="143.816" r="2.5" fill="#257b75"><title>Baseline: output 3, 3191.718277 ms</title></circle><circle cx="152.800" cy="144.142" r="2.5" fill="#257b75"><title>Baseline: output 4, 3187.809937 ms</title></circle><circle cx="185.200" cy="143.851" r="2.5" fill="#257b75"><title>Baseline: output 5, 3191.299538 ms</title></circle><circle cx="217.600" cy="143.687" r="2.5" fill="#257b75"><title>Baseline: output 6, 3193.269687 ms</title></circle><circle cx="250.000" cy="143.793" r="2.5" fill="#257b75"><title>Baseline: output 7, 3192.004445 ms</title></circle><circle cx="282.400" cy="143.853" r="2.5" fill="#257b75"><title>Baseline: output 8, 3191.281203 ms</title></circle><circle cx="314.800" cy="143.877" r="2.5" fill="#257b75"><title>Baseline: output 9, 3190.987944 ms</title></circle><circle cx="347.200" cy="144.197" r="2.5" fill="#257b75"><title>Baseline: output 10, 3187.159816 ms</title></circle><circle cx="379.600" cy="144.683" r="2.5" fill="#257b75"><title>Baseline: output 11, 3181.332502 ms</title></circle><circle cx="412.000" cy="145.407" r="2.5" fill="#257b75"><title>Baseline: output 12, 3172.650796 ms</title></circle><circle cx="444.400" cy="144.810" r="2.5" fill="#257b75"><title>Baseline: output 13, 3179.801423 ms</title></circle><circle cx="476.800" cy="143.494" r="2.5" fill="#257b75"><title>Baseline: output 14, 3195.587463 ms</title></circle><circle cx="509.200" cy="144.061" r="2.5" fill="#257b75"><title>Baseline: output 15, 3188.788389 ms</title></circle><circle cx="541.600" cy="143.553" r="2.5" fill="#257b75"><title>Baseline: output 16, 3194.882406 ms</title></circle><circle cx="574.000" cy="143.793" r="2.5" fill="#257b75"><title>Baseline: output 17, 3191.998669 ms</title></circle><circle cx="606.400" cy="144.078" r="2.5" fill="#257b75"><title>Baseline: output 18, 3188.585471 ms</title></circle><circle cx="638.800" cy="143.411" r="2.5" fill="#257b75"><title>Baseline: output 19, 3196.584374 ms</title></circle><circle cx="671.200" cy="143.998" r="2.5" fill="#257b75"><title>Baseline: output 20, 3189.537489 ms</title></circle><circle cx="703.600" cy="144.029" r="2.5" fill="#257b75"><title>Baseline: output 21, 3189.173333 ms</title></circle><circle cx="736.000" cy="144.483" r="2.5" fill="#257b75"><title>Baseline: output 22, 3183.728632 ms</title></circle><circle cx="768.400" cy="144.698" r="2.5" fill="#257b75"><title>Baseline: output 23, 3181.150389 ms</title></circle><circle cx="800.800" cy="144.191" r="2.5" fill="#257b75"><title>Baseline: output 24, 3187.227654 ms</title></circle><circle cx="833.200" cy="143.059" r="2.5" fill="#257b75"><title>Baseline: output 25, 3200.802722 ms</title></circle><circle cx="865.600" cy="143.691" r="2.5" fill="#257b75"><title>Baseline: output 26, 3193.223583 ms</title></circle><circle cx="898.000" cy="142.143" r="2.5" fill="#257b75"><title>Baseline: output 27, 3211.786091 ms</title></circle><circle cx="930.400" cy="142.832" r="2.5" fill="#257b75"><title>Baseline: output 28, 3203.523590 ms</title></circle><circle cx="962.800" cy="143.401" r="2.5" fill="#257b75"><title>Baseline: output 29, 3196.701502 ms</title></circle><circle cx="995.200" cy="142.918" r="2.5" fill="#257b75"><title>Baseline: output 30, 3202.495693 ms</title></circle><circle cx="1027.600" cy="144.412" r="2.5" fill="#257b75"><title>Baseline: output 31, 3184.573859 ms</title></circle><circle cx="1060.000" cy="143.329" r="2.5" fill="#257b75"><title>Baseline: output 32, 3197.562513 ms</title></circle><line x1="289" x2="308" y1="76" y2="76" stroke="#ac4b60" stroke-width="3" /><text x="315" y="81" font-family="sans-serif" font-size="12" fill="#222222">Admission cache</text><polyline points="88.000,185.378 120.400,185.643 152.800,185.876 185.200,186.566 217.600,187.103 250.000,186.110 282.400,185.882 314.800,186.360 347.200,187.016 379.600,186.661 412.000,186.314 444.400,186.733 476.800,187.101 509.200,186.486 541.600,186.816 574.000,186.980 606.400,186.207 638.800,185.232 671.200,185.772 703.600,186.097 736.000,186.717 768.400,186.101 800.800,184.968 833.200,186.581 865.600,185.718 898.000,185.710 930.400,184.640 962.800,184.675 995.200,184.455 1027.600,184.236 1060.000,184.076" fill="none" stroke="#ac4b60" stroke-width="2" /><circle cx="88.000" cy="185.378" r="2.5" fill="#ac4b60"><title>Admission cache: output 2, 2693.371286 ms</title></circle><circle cx="120.400" cy="185.643" r="2.5" fill="#ac4b60"><title>Admission cache: output 3, 2690.192349 ms</title></circle><circle cx="152.800" cy="185.876" r="2.5" fill="#ac4b60"><title>Admission cache: output 4, 2687.390785 ms</title></circle><circle cx="185.200" cy="186.566" r="2.5" fill="#ac4b60"><title>Admission cache: output 5, 2679.128917 ms</title></circle><circle cx="217.600" cy="187.103" r="2.5" fill="#ac4b60"><title>Admission cache: output 6, 2672.685916 ms</title></circle><circle cx="250.000" cy="186.110" r="2.5" fill="#ac4b60"><title>Admission cache: output 7, 2684.586736 ms</title></circle><circle cx="282.400" cy="185.882" r="2.5" fill="#ac4b60"><title>Admission cache: output 8, 2687.330403 ms</title></circle><circle cx="314.800" cy="186.360" r="2.5" fill="#ac4b60"><title>Admission cache: output 9, 2681.587176 ms</title></circle><circle cx="347.200" cy="187.016" r="2.5" fill="#ac4b60"><title>Admission cache: output 10, 2673.731095 ms</title></circle><circle cx="379.600" cy="186.661" r="2.5" fill="#ac4b60"><title>Admission cache: output 11, 2677.988000 ms</title></circle><circle cx="412.000" cy="186.314" r="2.5" fill="#ac4b60"><title>Admission cache: output 12, 2682.146650 ms</title></circle><circle cx="444.400" cy="186.733" r="2.5" fill="#ac4b60"><title>Admission cache: output 13, 2677.126293 ms</title></circle><circle cx="476.800" cy="187.101" r="2.5" fill="#ac4b60"><title>Admission cache: output 14, 2672.709968 ms</title></circle><circle cx="509.200" cy="186.486" r="2.5" fill="#ac4b60"><title>Admission cache: output 15, 2680.083197 ms</title></circle><circle cx="541.600" cy="186.816" r="2.5" fill="#ac4b60"><title>Admission cache: output 16, 2676.119879 ms</title></circle><circle cx="574.000" cy="186.980" r="2.5" fill="#ac4b60"><title>Admission cache: output 17, 2674.156526 ms</title></circle><circle cx="606.400" cy="186.207" r="2.5" fill="#ac4b60"><title>Admission cache: output 18, 2683.428381 ms</title></circle><circle cx="638.800" cy="185.232" r="2.5" fill="#ac4b60"><title>Admission cache: output 19, 2695.124084 ms</title></circle><circle cx="671.200" cy="185.772" r="2.5" fill="#ac4b60"><title>Admission cache: output 20, 2688.641064 ms</title></circle><circle cx="703.600" cy="186.097" r="2.5" fill="#ac4b60"><title>Admission cache: output 21, 2684.749953 ms</title></circle><circle cx="736.000" cy="186.717" r="2.5" fill="#ac4b60"><title>Admission cache: output 22, 2677.315350 ms</title></circle><circle cx="768.400" cy="186.101" r="2.5" fill="#ac4b60"><title>Admission cache: output 23, 2684.703362 ms</title></circle><circle cx="800.800" cy="184.968" r="2.5" fill="#ac4b60"><title>Admission cache: output 24, 2698.289940 ms</title></circle><circle cx="833.200" cy="186.581" r="2.5" fill="#ac4b60"><title>Admission cache: output 25, 2678.937952 ms</title></circle><circle cx="865.600" cy="185.718" r="2.5" fill="#ac4b60"><title>Admission cache: output 26, 2689.289669 ms</title></circle><circle cx="898.000" cy="185.710" r="2.5" fill="#ac4b60"><title>Admission cache: output 27, 2689.392672 ms</title></circle><circle cx="930.400" cy="184.640" r="2.5" fill="#ac4b60"><title>Admission cache: output 28, 2702.219184 ms</title></circle><circle cx="962.800" cy="184.675" r="2.5" fill="#ac4b60"><title>Admission cache: output 29, 2701.795922 ms</title></circle><circle cx="995.200" cy="184.455" r="2.5" fill="#ac4b60"><title>Admission cache: output 30, 2704.430766 ms</title></circle><circle cx="1027.600" cy="184.236" r="2.5" fill="#ac4b60"><title>Admission cache: output 31, 2707.061333 ms</title></circle><circle cx="1060.000" cy="184.076" r="2.5" fill="#ac4b60"><title>Admission cache: output 32, 2708.979387 ms</title></circle><line x1="554" x2="573" y1="76" y2="76" stroke="#5965a5" stroke-width="3" /><text x="580" y="81" font-family="sans-serif" font-size="12" fill="#222222">Cache + operational</text><polyline points="88.000,329.971 120.400,331.351 152.800,327.589 185.200,329.628 217.600,330.956 250.000,330.697 282.400,330.446 314.800,330.924 347.200,330.908 379.600,331.204 412.000,337.360 444.400,329.825 476.800,336.513 509.200,329.676 541.600,329.549 574.000,334.401 606.400,329.210 638.800,329.097 671.200,328.965 703.600,328.702 736.000,328.846 768.400,328.836 800.800,332.872 833.200,328.516 865.600,328.461 898.000,328.251 930.400,328.275 962.800,328.709 995.200,334.615 1027.600,333.354 1060.000,331.250" fill="none" stroke="#5965a5" stroke-width="2" /><circle cx="88.000" cy="329.971" r="2.5" fill="#5965a5"><title>Cache + operational: output 2, 959.605571 ms</title></circle><circle cx="120.400" cy="331.351" r="2.5" fill="#5965a5"><title>Cache + operational: output 3, 943.056189 ms</title></circle><circle cx="152.800" cy="327.589" r="2.5" fill="#5965a5"><title>Cache + operational: output 4, 988.161741 ms</title></circle><circle cx="185.200" cy="329.628" r="2.5" fill="#5965a5"><title>Cache + operational: output 5, 963.714216 ms</title></circle><circle cx="217.600" cy="330.956" r="2.5" fill="#5965a5"><title>Cache + operational: output 6, 947.787193 ms</title></circle><circle cx="250.000" cy="330.697" r="2.5" fill="#5965a5"><title>Cache + operational: output 7, 950.893572 ms</title></circle><circle cx="282.400" cy="330.446" r="2.5" fill="#5965a5"><title>Cache + operational: output 8, 953.903236 ms</title></circle><circle cx="314.800" cy="330.924" r="2.5" fill="#5965a5"><title>Cache + operational: output 9, 948.169955 ms</title></circle><circle cx="347.200" cy="330.908" r="2.5" fill="#5965a5"><title>Cache + operational: output 10, 948.364235 ms</title></circle><circle cx="379.600" cy="331.204" r="2.5" fill="#5965a5"><title>Cache + operational: output 11, 944.820084 ms</title></circle><circle cx="412.000" cy="337.360" r="2.5" fill="#5965a5"><title>Cache + operational: output 12, 870.997041 ms</title></circle><circle cx="444.400" cy="329.825" r="2.5" fill="#5965a5"><title>Cache + operational: output 13, 961.347402 ms</title></circle><circle cx="476.800" cy="336.513" r="2.5" fill="#5965a5"><title>Cache + operational: output 14, 881.161939 ms</title></circle><circle cx="509.200" cy="329.676" r="2.5" fill="#5965a5"><title>Cache + operational: output 15, 963.135171 ms</title></circle><circle cx="541.600" cy="329.549" r="2.5" fill="#5965a5"><title>Cache + operational: output 16, 964.664414 ms</title></circle><circle cx="574.000" cy="334.401" r="2.5" fill="#5965a5"><title>Cache + operational: output 17, 906.479303 ms</title></circle><circle cx="606.400" cy="329.210" r="2.5" fill="#5965a5"><title>Cache + operational: output 18, 968.725608 ms</title></circle><circle cx="638.800" cy="329.097" r="2.5" fill="#5965a5"><title>Cache + operational: output 19, 970.080091 ms</title></circle><circle cx="671.200" cy="328.965" r="2.5" fill="#5965a5"><title>Cache + operational: output 20, 971.665779 ms</title></circle><circle cx="703.600" cy="328.702" r="2.5" fill="#5965a5"><title>Cache + operational: output 21, 974.821410 ms</title></circle><circle cx="736.000" cy="328.846" r="2.5" fill="#5965a5"><title>Cache + operational: output 22, 973.094091 ms</title></circle><circle cx="768.400" cy="328.836" r="2.5" fill="#5965a5"><title>Cache + operational: output 23, 973.208352 ms</title></circle><circle cx="800.800" cy="332.872" r="2.5" fill="#5965a5"><title>Cache + operational: output 24, 924.818707 ms</title></circle><circle cx="833.200" cy="328.516" r="2.5" fill="#5965a5"><title>Cache + operational: output 25, 977.053353 ms</title></circle><circle cx="865.600" cy="328.461" r="2.5" fill="#5965a5"><title>Cache + operational: output 26, 977.701631 ms</title></circle><circle cx="898.000" cy="328.251" r="2.5" fill="#5965a5"><title>Cache + operational: output 27, 980.219701 ms</title></circle><circle cx="930.400" cy="328.275" r="2.5" fill="#5965a5"><title>Cache + operational: output 28, 979.937599 ms</title></circle><circle cx="962.800" cy="328.709" r="2.5" fill="#5965a5"><title>Cache + operational: output 29, 974.739378 ms</title></circle><circle cx="995.200" cy="334.615" r="2.5" fill="#5965a5"><title>Cache + operational: output 30, 903.918889 ms</title></circle><circle cx="1027.600" cy="333.354" r="2.5" fill="#5965a5"><title>Cache + operational: output 31, 919.039357 ms</title></circle><circle cx="1060.000" cy="331.250" r="2.5" fill="#5965a5"><title>Cache + operational: output 32, 944.259466 ms</title></circle></svg>