<?xml version='1.0' encoding='utf-8'?>
<svg xmlns="http://www.w3.org/2000/svg" viewBox="0 0 1100 490" width="1100" height="490" role="img"><title>Qwen3-8B: FP32 argmax selector observation</title><rect x="0" y="0" width="1100" height="490" fill="#ffffff" /><text x="24" y="28" font-family="sans-serif" font-size="18" fill="#222222">Qwen3-8B: FP32 argmax selector observation</text><text x="24" y="52" font-family="sans-serif" font-size="12" fill="#222222">One unwarmed request per variant; unqualified host intervals, not GPU durations.</text><line x1="88" x2="1060" y1="410.0" y2="410.0" stroke="#dddddd" /><text x="18" y="414.0" font-family="sans-serif" font-size="12" fill="#222222">0.0</text><line x1="88" x2="1060" y1="350.0" y2="350.0" stroke="#dddddd" /><text x="18" y="354.0" font-family="sans-serif" font-size="12" fill="#222222">36.7</text><line x1="88" x2="1060" y1="290.0" y2="290.0" stroke="#dddddd" /><text x="18" y="294.0" font-family="sans-serif" font-size="12" fill="#222222">73.5</text><line x1="88" x2="1060" y1="230.0" y2="230.0" stroke="#dddddd" /><text x="18" y="234.0" font-family="sans-serif" font-size="12" fill="#222222">110.2</text><line x1="88" x2="1060" y1="170.0" y2="170.0" stroke="#dddddd" /><text x="18" y="174.0" font-family="sans-serif" font-size="12" fill="#222222">146.9</text><line x1="88" x2="1060" y1="110.0" y2="110.0" stroke="#dddddd" /><text x="18" y="114.0" font-family="sans-serif" font-size="12" fill="#222222">183.7</text><text x="18" y="94" font-family="sans-serif" font-size="12" fill="#222222">ms</text><text x="83.0" y="434" font-family="sans-serif" font-size="12" fill="#222222">2</text><text x="277.4" y="434" font-family="sans-serif" font-size="12" fill="#222222">8</text><text x="536.6" y="434" font-family="sans-serif" font-size="12" fill="#222222">16</text><text x="795.8" y="434" font-family="sans-serif" font-size="12" fill="#222222">24</text><text x="1055.0" y="434" font-family="sans-serif" font-size="12" fill="#222222">32</text><text x="325" y="463" font-family="sans-serif" font-size="12" fill="#222222">Output token ordinal (first token excluded); lower interval is better</text><line x1="24" x2="43" y1="76" y2="76" stroke="#257b75" stroke-width="3" /><text x="50" y="81" font-family="sans-serif" font-size="12" fill="#222222">Serial FP32 argmax v7</text><polyline points="88.000,146.441 120.400,147.023 152.800,148.865 185.200,146.577 217.600,149.393 250.000,164.667 282.400,165.358 314.800,165.307 347.200,165.111 379.600,143.486 412.000,151.842 444.400,144.480 476.800,144.564 509.200,145.512 541.600,146.100 574.000,144.156 606.400,144.599 638.800,143.523 671.200,144.157 703.600,145.602 736.000,144.059 768.400,142.143 800.800,143.317 833.200,144.855 865.600,143.322 898.000,143.715 930.400,143.854 962.800,143.459 995.200,142.817 1027.600,144.349 1060.000,143.099" fill="none" stroke="#257b75" stroke-width="2" /><circle cx="88.000" cy="146.441" r="2.5" fill="#257b75"><title>Serial FP32 argmax v7: output 2, 161.360438 ms</title></circle><circle cx="120.400" cy="147.023" r="2.5" fill="#257b75"><title>Serial FP32 argmax v7: output 3, 161.004126 ms</title></circle><circle cx="152.800" cy="148.865" r="2.5" fill="#257b75"><title>Serial FP32 argmax v7: output 4, 159.876793 ms</title></circle><circle cx="185.200" cy="146.577" r="2.5" fill="#257b75"><title>Serial FP32 argmax v7: output 5, 161.277645 ms</title></circle><circle cx="217.600" cy="149.393" r="2.5" fill="#257b75"><title>Serial FP32 argmax v7: output 6, 159.553089 ms</title></circle><circle cx="250.000" cy="164.667" r="2.5" fill="#257b75"><title>Serial FP32 argmax v7: output 7, 150.201817 ms</title></circle><circle cx="282.400" cy="165.358" r="2.5" fill="#257b75"><title>Serial FP32 argmax v7: output 8, 149.778785 ms</title></circle><circle cx="314.800" cy="165.307" r="2.5" fill="#257b75"><title>Serial FP32 argmax v7: output 9, 149.810432 ms</title></circle><circle cx="347.200" cy="165.111" r="2.5" fill="#257b75"><title>Serial FP32 argmax v7: output 10, 149.930401 ms</title></circle><circle cx="379.600" cy="143.486" r="2.5" fill="#257b75"><title>Serial FP32 argmax v7: output 11, 163.169910 ms</title></circle><circle cx="412.000" cy="151.842" r="2.5" fill="#257b75"><title>Serial FP32 argmax v7: output 12, 158.053991 ms</title></circle><circle cx="444.400" cy="144.480" r="2.5" fill="#257b75"><title>Serial FP32 argmax v7: output 13, 162.561191 ms</title></circle><circle cx="476.800" cy="144.564" r="2.5" fill="#257b75"><title>Serial FP32 argmax v7: output 14, 162.509865 ms</title></circle><circle cx="509.200" cy="145.512" r="2.5" fill="#257b75"><title>Serial FP32 argmax v7: output 15, 161.929578 ms</title></circle><circle cx="541.600" cy="146.100" r="2.5" fill="#257b75"><title>Serial FP32 argmax v7: output 16, 161.569149 ms</title></circle><circle cx="574.000" cy="144.156" r="2.5" fill="#257b75"><title>Serial FP32 argmax v7: output 17, 162.759508 ms</title></circle><circle cx="606.400" cy="144.599" r="2.5" fill="#257b75"><title>Serial FP32 argmax v7: output 18, 162.488182 ms</title></circle><circle cx="638.800" cy="143.523" r="2.5" fill="#257b75"><title>Serial FP32 argmax v7: output 19, 163.147126 ms</title></circle><circle cx="671.200" cy="144.157" r="2.5" fill="#257b75"><title>Serial FP32 argmax v7: output 20, 162.759217 ms</title></circle><circle cx="703.600" cy="145.602" r="2.5" fill="#257b75"><title>Serial FP32 argmax v7: output 21, 161.874385 ms</title></circle><circle cx="736.000" cy="144.059" r="2.5" fill="#257b75"><title>Serial FP32 argmax v7: output 22, 162.818796 ms</title></circle><circle cx="768.400" cy="142.143" r="2.5" fill="#257b75"><title>Serial FP32 argmax v7: output 23, 163.992108 ms</title></circle><circle cx="800.800" cy="143.317" r="2.5" fill="#257b75"><title>Serial FP32 argmax v7: output 24, 163.273214 ms</title></circle><circle cx="833.200" cy="144.855" r="2.5" fill="#257b75"><title>Serial FP32 argmax v7: output 25, 162.331608 ms</title></circle><circle cx="865.600" cy="143.322" r="2.5" fill="#257b75"><title>Serial FP32 argmax v7: output 26, 163.269990 ms</title></circle><circle cx="898.000" cy="143.715" r="2.5" fill="#257b75"><title>Serial FP32 argmax v7: output 27, 163.029610 ms</title></circle><circle cx="930.400" cy="143.854" r="2.5" fill="#257b75"><title>Serial FP32 argmax v7: output 28, 162.944434 ms</title></circle><circle cx="962.800" cy="143.459" r="2.5" fill="#257b75"><title>Serial FP32 argmax v7: output 29, 163.186043 ms</title></circle><circle cx="995.200" cy="142.817" r="2.5" fill="#257b75"><title>Serial FP32 argmax v7: output 30, 163.579131 ms</title></circle><circle cx="1027.600" cy="144.349" r="2.5" fill="#257b75"><title>Serial FP32 argmax v7: output 31, 162.641511 ms</title></circle><circle cx="1060.000" cy="143.099" r="2.5" fill="#257b75"><title>Serial FP32 argmax v7: output 32, 163.406554 ms</title></circle><line x1="324" x2="343" y1="76" y2="76" stroke="#ac4b60" stroke-width="3" /><text x="350" y="81" font-family="sans-serif" font-size="12" fill="#222222">Wave FP32 argmax v11</text><polyline points="88.000,186.390 120.400,186.645 152.800,185.996 185.200,185.938 217.600,185.966 250.000,185.831 282.400,185.122 314.800,185.576 347.200,184.616 379.600,186.170 412.000,185.032 444.400,184.577 476.800,185.355 509.200,196.237 541.600,196.508 574.000,195.857 606.400,196.271 638.800,195.999 671.200,195.447 703.600,195.431 736.000,178.036 768.400,177.721 800.800,179.030 833.200,178.488 865.600,178.558 898.000,178.322 930.400,177.940 962.800,178.342 995.200,178.749 1027.600,178.074 1060.000,177.450" fill="none" stroke="#ac4b60" stroke-width="2" /><circle cx="88.000" cy="186.390" r="2.5" fill="#ac4b60"><title>Wave FP32 argmax v11: output 2, 136.902606 ms</title></circle><circle cx="120.400" cy="186.645" r="2.5" fill="#ac4b60"><title>Wave FP32 argmax v11: output 3, 136.746292 ms</title></circle><circle cx="152.800" cy="185.996" r="2.5" fill="#ac4b60"><title>Wave FP32 argmax v11: output 4, 137.143485 ms</title></circle><circle cx="185.200" cy="185.938" r="2.5" fill="#ac4b60"><title>Wave FP32 argmax v11: output 5, 137.179218 ms</title></circle><circle cx="217.600" cy="185.966" r="2.5" fill="#ac4b60"><title>Wave FP32 argmax v11: output 6, 137.162183 ms</title></circle><circle cx="250.000" cy="185.831" r="2.5" fill="#ac4b60"><title>Wave FP32 argmax v11: output 7, 137.244485 ms</title></circle><circle cx="282.400" cy="185.122" r="2.5" fill="#ac4b60"><title>Wave FP32 argmax v11: output 8, 137.678905 ms</title></circle><circle cx="314.800" cy="185.576" r="2.5" fill="#ac4b60"><title>Wave FP32 argmax v11: output 9, 137.400719 ms</title></circle><circle cx="347.200" cy="184.616" r="2.5" fill="#ac4b60"><title>Wave FP32 argmax v11: output 10, 137.988296 ms</title></circle><circle cx="379.600" cy="186.170" r="2.5" fill="#ac4b60"><title>Wave FP32 argmax v11: output 11, 137.037356 ms</title></circle><circle cx="412.000" cy="185.032" r="2.5" fill="#ac4b60"><title>Wave FP32 argmax v11: output 12, 137.733717 ms</title></circle><circle cx="444.400" cy="184.577" r="2.5" fill="#ac4b60"><title>Wave FP32 argmax v11: output 13, 138.012222 ms</title></circle><circle cx="476.800" cy="185.355" r="2.5" fill="#ac4b60"><title>Wave FP32 argmax v11: output 14, 137.536271 ms</title></circle><circle cx="509.200" cy="196.237" r="2.5" fill="#ac4b60"><title>Wave FP32 argmax v11: output 15, 130.873393 ms</title></circle><circle cx="541.600" cy="196.508" r="2.5" fill="#ac4b60"><title>Wave FP32 argmax v11: output 16, 130.707475 ms</title></circle><circle cx="574.000" cy="195.857" r="2.5" fill="#ac4b60"><title>Wave FP32 argmax v11: output 17, 131.106320 ms</title></circle><circle cx="606.400" cy="196.271" r="2.5" fill="#ac4b60"><title>Wave FP32 argmax v11: output 18, 130.852943 ms</title></circle><circle cx="638.800" cy="195.999" r="2.5" fill="#ac4b60"><title>Wave FP32 argmax v11: output 19, 131.019601 ms</title></circle><circle cx="671.200" cy="195.447" r="2.5" fill="#ac4b60"><title>Wave FP32 argmax v11: output 20, 131.357596 ms</title></circle><circle cx="703.600" cy="195.431" r="2.5" fill="#ac4b60"><title>Wave FP32 argmax v11: output 21, 131.367210 ms</title></circle><circle cx="736.000" cy="178.036" r="2.5" fill="#ac4b60"><title>Wave FP32 argmax v11: output 22, 142.017222 ms</title></circle><circle cx="768.400" cy="177.721" r="2.5" fill="#ac4b60"><title>Wave FP32 argmax v11: output 23, 142.209849 ms</title></circle><circle cx="800.800" cy="179.030" r="2.5" fill="#ac4b60"><title>Wave FP32 argmax v11: output 24, 141.408173 ms</title></circle><circle cx="833.200" cy="178.488" r="2.5" fill="#ac4b60"><title>Wave FP32 argmax v11: output 25, 141.740379 ms</title></circle><circle cx="865.600" cy="178.558" r="2.5" fill="#ac4b60"><title>Wave FP32 argmax v11: output 26, 141.697274 ms</title></circle><circle cx="898.000" cy="178.322" r="2.5" fill="#ac4b60"><title>Wave FP32 argmax v11: output 27, 141.842161 ms</title></circle><circle cx="930.400" cy="177.940" r="2.5" fill="#ac4b60"><title>Wave FP32 argmax v11: output 28, 142.075499 ms</title></circle><circle cx="962.800" cy="178.342" r="2.5" fill="#ac4b60"><title>Wave FP32 argmax v11: output 29, 141.829542 ms</title></circle><circle cx="995.200" cy="178.749" r="2.5" fill="#ac4b60"><title>Wave FP32 argmax v11: output 30, 141.580249 ms</title></circle><circle cx="1027.600" cy="178.074" r="2.5" fill="#ac4b60"><title>Wave FP32 argmax v11: output 31, 141.993657 ms</title></circle><circle cx="1060.000" cy="177.450" r="2.5" fill="#ac4b60"><title>Wave FP32 argmax v11: output 32, 142.375998 ms</title></circle></svg>