<svg xmlns="http://www.w3.org/2000/svg" width="1060" height="370" viewBox="0 0 1060 370">
<rect width="100%" height="100%" fill="white"/>
<g font-family="sans-serif" fill="#20252b">
<text x="24" y="28" font-size="20">Parent totals and forward groups</text>
<text x="24" y="51" font-size="12">Rows overlap: all forwards = first use + warm. Total also includes preparation, Close and publication.</text>
<rect x="230" y="68" width="24" height="10" fill="#147d92"/>
<text x="262" y="78" font-size="12">Bank V2 control</text>
<rect x="490" y="68" width="24" height="10" fill="#b44b3e"/>
<text x="522" y="78" font-size="12">Census V3 candidate</text>
<text x="24" y="122" font-size="13">Total parent</text>
<rect x="215" y="105" width="620.000" height="11" fill="#147d92"><title>480325640558 ns</title></rect>
<text x="860" y="115" font-size="12">480.325641 s</text>
<rect x="215" y="121" width="574.755" height="11" fill="#b44b3e"><title>445273315279 ns</title></rect>
<text x="860" y="131" font-size="12">445.273315 s</text>
<text x="24" y="177" font-size="13">All forwards</text>
<rect x="215" y="160" width="174.465" height="11" fill="#147d92"><title>135161509365 ns</title></rect>
<text x="860" y="170" font-size="12">135.161509 s</text>
<rect x="215" y="176" width="127.363" height="11" fill="#b44b3e"><title>98670485864 ns</title></rect>
<text x="860" y="186" font-size="12">98.670486 s</text>
<text x="24" y="232" font-size="13">First use (0-1)</text>
<rect x="215" y="215" width="33.559" height="11" fill="#147d92"><title>25999121127 ns</title></rect>
<text x="860" y="225" font-size="12">25.999121 s</text>
<rect x="215" y="231" width="33.812" height="11" fill="#b44b3e"><title>26194713787 ns</title></rect>
<text x="860" y="241" font-size="12">26.194714 s</text>
<text x="24" y="287" font-size="13">Warm (2-39)</text>
<rect x="215" y="270" width="140.906" height="11" fill="#147d92"><title>109162388238 ns</title></rect>
<text x="860" y="280" font-size="12">109.162388 s</text>
<rect x="215" y="286" width="93.551" height="11" fill="#b44b3e"><title>72475772077 ns</title></rect>
<text x="860" y="296" font-size="12">72.475772 s</text>
<text x="24" y="350" font-size="12">One ordered same-ELF pair. Parent wall measurement only; no GPU time, throughput or long-run claim.</text>
</g></svg>
