<?xml version='1.0' encoding='utf-8'?>
<svg xmlns="http://www.w3.org/2000/svg" viewBox="0 0 1100 490" width="1100" height="490" role="img"><title>Qwen3-8B: MFMA/FP32-v7 full-forward submissions</title><rect x="0" y="0" width="1100" height="490" fill="#ffffff" /><text x="24" y="28" font-family="sans-serif" font-size="18" fill="#222222">Qwen3-8B: MFMA/FP32-v7 full-forward submissions</text><text x="24" y="52" font-family="sans-serif" font-size="12" fill="#222222">One unwarmed request per configuration; host intervals, not GPU durations or qualified benchmarks.</text><line x1="88" x2="1060" y1="410.0" y2="410.0" stroke="#dddddd" /><text x="18" y="414.0" font-family="sans-serif" font-size="12" fill="#222222">0.0</text><line x1="88" x2="1060" y1="350.0" y2="350.0" stroke="#dddddd" /><text x="18" y="354.0" font-family="sans-serif" font-size="12" fill="#222222">110.9</text><line x1="88" x2="1060" y1="290.0" y2="290.0" stroke="#dddddd" /><text x="18" y="294.0" font-family="sans-serif" font-size="12" fill="#222222">221.9</text><line x1="88" x2="1060" y1="230.0" y2="230.0" stroke="#dddddd" /><text x="18" y="234.0" font-family="sans-serif" font-size="12" fill="#222222">332.8</text><line x1="88" x2="1060" y1="170.0" y2="170.0" stroke="#dddddd" /><text x="18" y="174.0" font-family="sans-serif" font-size="12" fill="#222222">443.7</text><line x1="88" x2="1060" y1="110.0" y2="110.0" stroke="#dddddd" /><text x="18" y="114.0" font-family="sans-serif" font-size="12" fill="#222222">554.7</text><text x="18" y="94" font-family="sans-serif" font-size="12" fill="#222222">ms</text><text x="83.0" y="434" font-family="sans-serif" font-size="12" fill="#222222">2</text><text x="277.4" y="434" font-family="sans-serif" font-size="12" fill="#222222">8</text><text x="536.6" y="434" font-family="sans-serif" font-size="12" fill="#222222">16</text><text x="795.8" y="434" font-family="sans-serif" font-size="12" fill="#222222">24</text><text x="1055.0" y="434" font-family="sans-serif" font-size="12" fill="#222222">32</text><text x="325" y="463" font-family="sans-serif" font-size="12" fill="#222222">Output token ordinal (first token excluded); lower interval is better</text><line x1="24" x2="43" y1="76" y2="76" stroke="#257b75" stroke-width="3" /><text x="50" y="81" font-family="sans-serif" font-size="12" fill="#222222">Serial submissions</text><polyline points="88.000,194.468 120.400,172.762 152.800,171.233 185.200,169.926 217.600,169.445 250.000,169.207 282.400,168.119 314.800,165.560 347.200,165.597 379.600,165.108 412.000,165.121 444.400,162.789 476.800,162.503 509.200,161.440 541.600,161.183 574.000,160.191 606.400,160.873 638.800,177.275 671.200,159.663 703.600,155.616 736.000,154.006 768.400,154.614 800.800,152.386 833.200,150.672 865.600,144.520 898.000,144.235 930.400,144.643 962.800,143.478 995.200,144.247 1027.600,142.744 1060.000,142.143" fill="none" stroke="#257b75" stroke-width="2" /><circle cx="88.000" cy="194.468" r="2.5" fill="#257b75"><title>Serial submissions: output 2, 398.489965 ms</title></circle><circle cx="120.400" cy="172.762" r="2.5" fill="#257b75"><title>Serial submissions: output 3, 438.621732 ms</title></circle><circle cx="152.800" cy="171.233" r="2.5" fill="#257b75"><title>Serial submissions: output 4, 441.448353 ms</title></circle><circle cx="185.200" cy="169.926" r="2.5" fill="#257b75"><title>Serial submissions: output 5, 443.865672 ms</title></circle><circle cx="217.600" cy="169.445" r="2.5" fill="#257b75"><title>Serial submissions: output 6, 444.754569 ms</title></circle><circle cx="250.000" cy="169.207" r="2.5" fill="#257b75"><title>Serial submissions: output 7, 445.195027 ms</title></circle><circle cx="282.400" cy="168.119" r="2.5" fill="#257b75"><title>Serial submissions: output 8, 447.206150 ms</title></circle><circle cx="314.800" cy="165.560" r="2.5" fill="#257b75"><title>Serial submissions: output 9, 451.937473 ms</title></circle><circle cx="347.200" cy="165.597" r="2.5" fill="#257b75"><title>Serial submissions: output 10, 451.869562 ms</title></circle><circle cx="379.600" cy="165.108" r="2.5" fill="#257b75"><title>Serial submissions: output 11, 452.773041 ms</title></circle><circle cx="412.000" cy="165.121" r="2.5" fill="#257b75"><title>Serial submissions: output 12, 452.749566 ms</title></circle><circle cx="444.400" cy="162.789" r="2.5" fill="#257b75"><title>Serial submissions: output 13, 457.060572 ms</title></circle><circle cx="476.800" cy="162.503" r="2.5" fill="#257b75"><title>Serial submissions: output 14, 457.590574 ms</title></circle><circle cx="509.200" cy="161.440" r="2.5" fill="#257b75"><title>Serial submissions: output 15, 459.555187 ms</title></circle><circle cx="541.600" cy="161.183" r="2.5" fill="#257b75"><title>Serial submissions: output 16, 460.031088 ms</title></circle><circle cx="574.000" cy="160.191" r="2.5" fill="#257b75"><title>Serial submissions: output 17, 461.863863 ms</title></circle><circle cx="606.400" cy="160.873" r="2.5" fill="#257b75"><title>Serial submissions: output 18, 460.602941 ms</title></circle><circle cx="638.800" cy="177.275" r="2.5" fill="#257b75"><title>Serial submissions: output 19, 430.278356 ms</title></circle><circle cx="671.200" cy="159.663" r="2.5" fill="#257b75"><title>Serial submissions: output 20, 462.841574 ms</title></circle><circle cx="703.600" cy="155.616" r="2.5" fill="#257b75"><title>Serial submissions: output 21, 470.323474 ms</title></circle><circle cx="736.000" cy="154.006" r="2.5" fill="#257b75"><title>Serial submissions: output 22, 473.299547 ms</title></circle><circle cx="768.400" cy="154.614" r="2.5" fill="#257b75"><title>Serial submissions: output 23, 472.175980 ms</title></circle><circle cx="800.800" cy="152.386" r="2.5" fill="#257b75"><title>Serial submissions: output 24, 476.294109 ms</title></circle><circle cx="833.200" cy="150.672" r="2.5" fill="#257b75"><title>Serial submissions: output 25, 479.463450 ms</title></circle><circle cx="865.600" cy="144.520" r="2.5" fill="#257b75"><title>Serial submissions: output 26, 490.837943 ms</title></circle><circle cx="898.000" cy="144.235" r="2.5" fill="#257b75"><title>Serial submissions: output 27, 491.364920 ms</title></circle><circle cx="930.400" cy="144.643" r="2.5" fill="#257b75"><title>Serial submissions: output 28, 490.611274 ms</title></circle><circle cx="962.800" cy="143.478" r="2.5" fill="#257b75"><title>Serial submissions: output 29, 492.763918 ms</title></circle><circle cx="995.200" cy="144.247" r="2.5" fill="#257b75"><title>Serial submissions: output 30, 491.343498 ms</title></circle><circle cx="1027.600" cy="142.744" r="2.5" fill="#257b75"><title>Serial submissions: output 31, 494.122517 ms</title></circle><circle cx="1060.000" cy="142.143" r="2.5" fill="#257b75"><title>Serial submissions: output 32, 495.233124 ms</title></circle><line x1="289" x2="308" y1="76" y2="76" stroke="#ac4b60" stroke-width="3" /><text x="315" y="81" font-family="sans-serif" font-size="12" fill="#222222">Full-forward submission</text><polyline points="88.000,300.743 120.400,289.097 152.800,298.969 185.200,298.218 217.600,297.540 250.000,296.892 282.400,295.998 314.800,294.181 347.200,293.609 379.600,292.848 412.000,292.127 444.400,279.654 476.800,289.932 509.200,277.349 541.600,273.474 574.000,287.711 606.400,286.364 638.800,270.003 671.200,284.876 703.600,284.328 736.000,282.590 768.400,282.522 800.800,281.232 833.200,280.872 865.600,279.515 898.000,259.458 930.400,257.282 962.800,258.423 995.200,270.965 1027.600,270.194 1060.000,268.846" fill="none" stroke="#ac4b60" stroke-width="2" /><circle cx="88.000" cy="300.743" r="2.5" fill="#ac4b60"><title>Full-forward submission: output 2, 202.002525 ms</title></circle><circle cx="120.400" cy="289.097" r="2.5" fill="#ac4b60"><title>Full-forward submission: output 3, 223.534572 ms</title></circle><circle cx="152.800" cy="298.969" r="2.5" fill="#ac4b60"><title>Full-forward submission: output 4, 205.282321 ms</title></circle><circle cx="185.200" cy="298.218" r="2.5" fill="#ac4b60"><title>Full-forward submission: output 5, 206.671085 ms</title></circle><circle cx="217.600" cy="297.540" r="2.5" fill="#ac4b60"><title>Full-forward submission: output 6, 207.923455 ms</title></circle><circle cx="250.000" cy="296.892" r="2.5" fill="#ac4b60"><title>Full-forward submission: output 7, 209.122665 ms</title></circle><circle cx="282.400" cy="295.998" r="2.5" fill="#ac4b60"><title>Full-forward submission: output 8, 210.775212 ms</title></circle><circle cx="314.800" cy="294.181" r="2.5" fill="#ac4b60"><title>Full-forward submission: output 9, 214.133948 ms</title></circle><circle cx="347.200" cy="293.609" r="2.5" fill="#ac4b60"><title>Full-forward submission: output 10, 215.192087 ms</title></circle><circle cx="379.600" cy="292.848" r="2.5" fill="#ac4b60"><title>Full-forward submission: output 11, 216.599347 ms</title></circle><circle cx="412.000" cy="292.127" r="2.5" fill="#ac4b60"><title>Full-forward submission: output 12, 217.932008 ms</title></circle><circle cx="444.400" cy="279.654" r="2.5" fill="#ac4b60"><title>Full-forward submission: output 13, 240.992498 ms</title></circle><circle cx="476.800" cy="289.932" r="2.5" fill="#ac4b60"><title>Full-forward submission: output 14, 221.990687 ms</title></circle><circle cx="509.200" cy="277.349" r="2.5" fill="#ac4b60"><title>Full-forward submission: output 15, 245.254060 ms</title></circle><circle cx="541.600" cy="273.474" r="2.5" fill="#ac4b60"><title>Full-forward submission: output 16, 252.419168 ms</title></circle><circle cx="574.000" cy="287.711" r="2.5" fill="#ac4b60"><title>Full-forward submission: output 17, 226.096327 ms</title></circle><circle cx="606.400" cy="286.364" r="2.5" fill="#ac4b60"><title>Full-forward submission: output 18, 228.587427 ms</title></circle><circle cx="638.800" cy="270.003" r="2.5" fill="#ac4b60"><title>Full-forward submission: output 19, 258.836850 ms</title></circle><circle cx="671.200" cy="284.876" r="2.5" fill="#ac4b60"><title>Full-forward submission: output 20, 231.338583 ms</title></circle><circle cx="703.600" cy="284.328" r="2.5" fill="#ac4b60"><title>Full-forward submission: output 21, 232.350866 ms</title></circle><circle cx="736.000" cy="282.590" r="2.5" fill="#ac4b60"><title>Full-forward submission: output 22, 235.564102 ms</title></circle><circle cx="768.400" cy="282.522" r="2.5" fill="#ac4b60"><title>Full-forward submission: output 23, 235.689931 ms</title></circle><circle cx="800.800" cy="281.232" r="2.5" fill="#ac4b60"><title>Full-forward submission: output 24, 238.075503 ms</title></circle><circle cx="833.200" cy="280.872" r="2.5" fill="#ac4b60"><title>Full-forward submission: output 25, 238.740345 ms</title></circle><circle cx="865.600" cy="279.515" r="2.5" fill="#ac4b60"><title>Full-forward submission: output 26, 241.250372 ms</title></circle><circle cx="898.000" cy="259.458" r="2.5" fill="#ac4b60"><title>Full-forward submission: output 27, 278.333388 ms</title></circle><circle cx="930.400" cy="257.282" r="2.5" fill="#ac4b60"><title>Full-forward submission: output 28, 282.355134 ms</title></circle><circle cx="962.800" cy="258.423" r="2.5" fill="#ac4b60"><title>Full-forward submission: output 29, 280.245663 ms</title></circle><circle cx="995.200" cy="270.965" r="2.5" fill="#ac4b60"><title>Full-forward submission: output 30, 257.056972 ms</title></circle><circle cx="1027.600" cy="270.194" r="2.5" fill="#ac4b60"><title>Full-forward submission: output 31, 258.483102 ms</title></circle><circle cx="1060.000" cy="268.846" r="2.5" fill="#ac4b60"><title>Full-forward submission: output 32, 260.975081 ms</title></circle></svg>